<svg xmlns="http://www.w3.org/2000/svg" viewBox="0 0 300.112 300.112"><path d="M150.057 105.1c-24.789 0-44.955 20.167-44.955 44.955s20.166 44.955 44.955 44.955c24.789 0 44.955-20.167 44.955-44.955S174.845 105.1 150.057 105.1zm0 73.26c-15.607 0-28.305-12.697-28.305-28.305s12.697-28.305 28.305-28.305 28.305 12.697 28.305 28.305-12.699 28.305-28.305 28.305z"/><path d="M297.365 183.342l-25.458-22.983v-20.608l25.457-22.981a8.326 8.326 0 002.112-9.366l-13.605-32.846a8.32 8.32 0 00-8.115-5.128l-34.252 1.749-14.571-14.571 1.749-34.251a8.324 8.324 0 00-5.128-8.116L192.707.635a8.325 8.325 0 00-9.365 2.111l-22.984 25.458h-20.606L116.77 2.746a8.329 8.329 0 00-9.365-2.111L74.559 14.24a8.324 8.324 0 00-5.128 8.116l1.75 34.251-14.572 14.571-34.252-1.749a8.322 8.322 0 00-8.115 5.128L.635 107.403a8.327 8.327 0 002.112 9.366l25.457 22.981v20.608L2.749 183.341a8.326 8.326 0 00-2.112 9.366l13.605 32.846c1.348 3.255 4.603 5.321 8.115 5.128l34.252-1.749 14.572 14.571-1.75 34.251a8.324 8.324 0 005.128 8.116l32.846 13.606a8.32 8.32 0 009.365-2.111l22.984-25.458h20.606l22.984 25.458a8.328 8.328 0 009.365 2.112l32.846-13.606a8.324 8.324 0 005.128-8.116l-1.749-34.251 14.571-14.571 34.252 1.749a8.336 8.336 0 008.115-5.128l13.605-32.846a8.327 8.327 0 00-2.112-9.366zm-24.628 30.412l-32.079-1.639a8.307 8.307 0 00-6.311 2.428l-19.804 19.804a8.327 8.327 0 00-2.428 6.311l1.638 32.079-21.99 9.109-21.525-23.843a8.33 8.33 0 00-6.179-2.746h-28.006a8.326 8.326 0 00-6.179 2.746l-21.525 23.843-21.99-9.109 1.639-32.079a8.323 8.323 0 00-2.429-6.311l-19.803-19.804a8.314 8.314 0 00-6.311-2.428l-32.079 1.639-9.109-21.99 23.842-21.525a8.329 8.329 0 002.746-6.179v-28.008a8.326 8.326 0 00-2.746-6.179l-23.842-21.525 9.109-21.99 32.079 1.639a8.31 8.31 0 006.311-2.428l19.803-19.803a8.326 8.326 0 002.429-6.313l-1.639-32.079 21.99-9.109 21.525 23.842a8.33 8.33 0 006.179 2.746h28.006a8.326 8.326 0 006.179-2.746l21.525-23.842 21.99 9.109-1.638 32.079a8.327 8.327 0 002.428 6.313l19.804 19.803c1.666 1.665 3.959 2.564 6.311 2.428l32.079-1.639 9.109 21.99-23.843 21.525a8.329 8.329 0 00-2.746 6.179v28.008c0 2.355.998 4.601 2.746 6.179l23.843 21.525-9.109 21.99z"/><path d="M150.057 71.357c-43.394 0-78.698 35.305-78.698 78.698 0 43.394 35.304 78.698 78.698 78.698 43.394 0 78.698-35.305 78.698-78.698-.001-43.394-35.305-78.698-78.698-78.698zm0 140.746c-34.214 0-62.048-27.834-62.048-62.048s27.834-62.048 62.048-62.048 62.048 27.834 62.048 62.048-27.836 62.048-62.048 62.048z"/></svg>